<svg width="252" height="156" viewBox="0 0 252 156" fill="none" xmlns="http://www.w3.org/2000/svg">
<path d="M71.5 91.5V100.5C71.5 101.775 71.932 102.843 72.796 103.704C73.657 104.568 74.725 105 76 105C77.275 105 78.3445 104.568 79.2085 103.704C80.0695 102.843 80.5 101.775 80.5 100.5V91.5H89.5C90.775 91.5 91.8445 91.068 92.7085 90.204C93.5695 89.343 94 88.275 94 87C94 85.725 93.5695 84.6555 92.7085 83.7915C91.8445 82.9305 90.775 82.5 89.5 82.5H80.5V73.5C80.5 72.225 80.0695 71.1555 79.2085 70.2915C78.3445 69.4305 77.275 69 76 69C74.725 69 73.657 69.4305 72.796 70.2915C71.932 71.1555 71.5 72.225 71.5 73.5V82.5H62.5C61.225 82.5 60.157 82.9305 59.296 83.7915C58.432 84.6555 58 85.725 58 87C58 88.275 58.432 89.343 59.296 90.204C60.157 91.068 61.225 91.5 62.5 91.5H71.5ZM40 123C37.525 123 35.407 122.12 33.646 120.359C31.882 118.595 31 116.475 31 114V60C31 57.525 31.882 55.407 33.646 53.646C35.407 51.882 37.525 51 40 51H58V42C58 39.525 58.882 37.4055 60.646 35.6415C62.407 33.8805 64.525 33 67 33H85C87.475 33 89.5945 33.8805 91.3585 35.6415C93.1195 37.4055 94 39.525 94 42V51H112C114.475 51 116.595 51.882 118.359 53.646C120.12 55.407 121 57.525 121 60V114C121 116.475 120.12 118.595 118.359 120.359C116.595 122.12 114.475 123 112 123H40ZM67 51H85V42H67V51Z" fill="white"/>
<path d="M132 119V96.5C132 90.275 134.194 84.968 138.583 80.579C142.969 76.193 148.275 74 154.5 74H159V42.5C159 38.75 160.313 35.5625 162.938 32.9375C165.562 30.3125 168.75 29 172.5 29C176.25 29 179.438 30.3125 182.062 32.9375C184.687 35.5625 186 38.75 186 42.5V74H190.5C196.725 74 202.032 76.193 206.421 80.579C210.807 84.968 213 90.275 213 96.5V119C213 121.475 212.12 123.595 210.359 125.359C208.595 127.12 206.475 128 204 128H141C138.525 128 136.405 127.12 134.641 125.359C132.88 123.595 132 121.475 132 119ZM141 119H150V105.5C150 104.225 150.431 103.157 151.292 102.296C152.156 101.432 153.225 101 154.5 101C155.775 101 156.845 101.432 157.709 102.296C158.57 103.157 159 104.225 159 105.5V119H168V105.5C168 104.225 168.432 103.157 169.296 102.296C170.157 101.432 171.225 101 172.5 101C173.775 101 174.845 101.432 175.709 102.296C176.57 103.157 177 104.225 177 105.5V119H186V105.5C186 104.225 186.432 103.157 187.296 102.296C188.157 101.432 189.225 101 190.5 101C191.775 101 192.843 101.432 193.704 102.296C194.568 103.157 195 104.225 195 105.5V119H204V96.5C204 92.75 202.687 89.5625 200.062 86.9375C197.438 84.3125 194.25 83 190.5 83H154.5C150.75 83 147.562 84.3125 144.938 86.9375C142.313 89.5625 141 92.75 141 96.5V119Z" fill="white"/>
</svg>
