<svg width="256" height="192" viewBox="0 0 256 192" fill="none" xmlns="http://www.w3.org/2000/svg">
<path d="M176.699 22.7285L133.164 70.6289C132.021 71.8594 131.406 73.5 131.406 75.1699C131.406 78.9199 134.424 81.9375 138.174 81.9375H145.469L123.965 103.441C122.734 104.672 122.031 106.371 122.031 108.129C122.031 111.791 124.99 114.75 128.652 114.75H138.438L116.582 140.971C115.557 142.201 115 143.754 115 145.365C115 149.174 118.076 152.25 121.885 152.25H171.25V161.625C171.25 166.811 175.439 171 180.625 171C185.811 171 190 166.811 190 161.625V152.25H239.365C243.174 152.25 246.25 149.174 246.25 145.365C246.25 143.754 245.693 142.201 244.668 140.971L222.812 114.75H232.598C236.26 114.75 239.219 111.791 239.219 108.129C239.219 106.371 238.516 104.672 237.285 103.441L215.781 81.9375H223.076C226.797 81.9375 229.844 78.9199 229.844 75.1699C229.844 73.5 229.229 71.8594 228.086 70.6289L184.551 22.7285C183.555 21.6152 182.119 21 180.625 21C179.131 21 177.695 21.6152 176.699 22.7285Z" fill="white"/>
<path d="M93 53.1429C93 55.1518 92.6652 56.8259 92.3304 58.5C99.0268 63.1875 103.714 71.2232 103.714 79.9286C103.714 94.9955 91.6607 106.714 76.9286 106.714H71.5714V160.286C71.5714 166.313 66.5491 171 60.8571 171C54.8304 171 50.1429 166.313 50.1429 160.286V106.714H44.7857C29.7188 106.714 18 94.9955 18 79.9286C18 71.2232 22.3527 63.1875 29.0491 58.5C28.7143 56.8259 28.7143 55.1518 28.7143 53.1429C28.7143 35.3973 42.7768 21 60.8571 21C78.6027 21 93 35.3973 93 53.1429Z" fill="white"/>
</svg>
