<?xml version="1.0" encoding="UTF-8" standalone="no"?>
<svg
   width="256"
   height="192"
   viewBox="0 0 256 192"
   fill="none"
   version="1.1"
   id="svg8"
   sodipodi:docname="places.svg"
   inkscape:version="1.1.2 (0a00cf5339, 2022-02-04)"
   xmlns:inkscape="http://www.inkscape.org/namespaces/inkscape"
   xmlns:sodipodi="http://sodipodi.sourceforge.net/DTD/sodipodi-0.dtd"
   xmlns="http://www.w3.org/2000/svg"
   xmlns:svg="http://www.w3.org/2000/svg">
  <defs
     id="defs12" />
  <sodipodi:namedview
     id="namedview10"
     pagecolor="#ffffff"
     bordercolor="#666666"
     borderopacity="1.0"
     inkscape:pageshadow="2"
     inkscape:pageopacity="0.0"
     inkscape:pagecheckerboard="0"
     showgrid="false"
     inkscape:zoom="2.1979167"
     inkscape:cx="92.587678"
     inkscape:cy="182.67299"
     inkscape:window-width="1846"
     inkscape:window-height="1016"
     inkscape:window-x="74"
     inkscape:window-y="27"
     inkscape:window-maximized="1"
     inkscape:current-layer="svg8" />
  <path
     d="M149.75 93.375L135.5 133.5L175.625 119.287M143 62.25H143.038M210.5 81H210.538M184.25 58.5H184.288M210.5 126H210.538M210.5 58.5L202.1 61.3125C199.709 62.109 197.669 63.7111 196.328 65.8452C194.987 67.9793 194.43 70.5127 194.75 73.0125C195.125 76.2375 192.613 79.125 189.313 79.125H187.888C184.663 79.125 181.888 81.375 181.288 84.525L180.5 88.5M210.5 99.75L207.425 98.5125C204.2 97.2375 200.6 99.2625 200 102.675C199.588 105.3 197.3 107.25 194.638 107.25H191.75M169.25 58.5L170.487 61.575C171.762 64.8 169.738 68.4 166.325 69C163.7 69.375 161.75 71.7 161.75 74.3625V77.25"
     stroke="white"
     stroke-width="4"
     stroke-linecap="round"
     stroke-linejoin="round"
     id="path2"
     style="stroke:#007bff;stroke-opacity:1" />
  <path
     d="M169.25 99.75C176.488 106.988 179.863 115.388 176.75 118.5C173.638 121.613 165.238 118.238 158 111C150.763 103.763 147.388 95.3625 150.5 92.25C153.613 89.1375 162.013 92.5125 169.25 99.75Z"
     stroke="white"
     stroke-width="4"
     stroke-linecap="round"
     stroke-linejoin="round"
     id="path4"
     style="stroke:#007bff;stroke-opacity:1" />
  <path
     d="M77.5 45L36 66.9048V75.6667H119V66.9048M97.1579 84.4286V115.095H110.263V84.4286M36 137H119V123.857H36M70.9474 84.4286V115.095H84.0526V84.4286M44.7368 84.4286V115.095H57.8421V84.4286H44.7368Z"
     fill="white"
     id="path6"
     style="fill:#007bff;fill-opacity:1" />
</svg>
