<svg width="256" height="192" viewBox="0 0 256 192" fill="none" xmlns="http://www.w3.org/2000/svg">
<path d="M74 46C100.25 46 117.75 52.875 117.75 61.625V71C121.207 71 124 73.793 124 77.25V89.75C124 93.207 121.207 96 117.75 96V127.25C117.75 130.707 114.957 133.5 111.5 133.5V139.75C111.5 143.207 108.707 146 105.25 146H99C95.543 146 92.75 143.207 92.75 139.75V133.5H55.25V139.75C55.25 143.207 52.457 146 49 146H42.75C39.293 146 36.5 143.207 36.5 139.75V133.5C33.043 133.5 30.25 130.707 30.25 127.25V96C26.793 96 24 93.207 24 89.75V77.25C24 73.793 26.793 71 30.25 71V61.625C30.25 52.875 47.75 46 74 46ZM42.75 77.25V96C42.75 99.457 45.543 102.25 49 102.25H70.875V71H49C45.543 71 42.75 73.793 42.75 77.25ZM77.125 102.25H99C102.457 102.25 105.25 99.457 105.25 96V77.25C105.25 73.793 102.457 71 99 71H77.125V102.25ZM45.875 124.125C49.332 124.125 52.125 121.332 52.125 117.875C52.125 114.418 49.332 111.625 45.875 111.625C42.418 111.625 39.625 114.418 39.625 117.875C39.625 121.332 42.418 124.125 45.875 124.125ZM102.125 124.125C105.582 124.125 108.375 121.332 108.375 117.875C108.375 114.418 105.582 111.625 102.125 111.625C98.668 111.625 95.875 114.418 95.875 117.875C95.875 121.332 98.668 124.125 102.125 124.125ZM92.75 61.625C92.75 59.9062 91.3438 58.5 89.625 58.5H58.375C56.6562 58.5 55.25 59.9062 55.25 61.625C55.25 63.3438 56.6562 64.75 58.375 64.75H89.625C91.3438 64.75 92.75 63.3438 92.75 61.625Z" fill="white"/>
<path d="M156.377 49.7149C153.653 49.7149 151.109 50.9426 149.412 53.0633L146.532 56.6349C144.702 58.9342 141.331 59.3137 139.01 57.4609C136.688 55.6081 136.331 52.2597 138.184 49.9381L141.019 46.3665C144.747 41.7234 150.394 39 156.377 39H217.63C223.59 39 229.238 41.7234 232.966 46.3665L235.823 49.9381C237.676 52.2597 237.297 55.6304 234.997 57.4609C232.698 59.2913 229.305 58.9342 227.475 56.6349L224.617 53.0633C222.921 50.9426 220.354 49.7149 217.653 49.7149H192.361V60.4298H201.29C213.121 60.4298 222.72 70.0286 222.72 81.8596V117.576C222.72 124.407 219.528 130.478 214.55 134.407L229.171 149.029C230.756 150.614 229.64 153.292 227.408 153.292H218.545C216.648 153.292 214.84 152.533 213.501 151.194L201.29 139.006H172.717L160.529 151.194C159.189 152.533 157.381 153.292 155.484 153.292H146.599C144.367 153.292 143.251 150.591 144.836 149.029L159.457 134.407C154.479 130.478 151.287 124.407 151.287 117.576V81.8596C151.287 70.0286 160.886 60.4298 172.717 60.4298H181.646V49.7149H156.377ZM172.717 74.7163C168.766 74.7163 165.574 77.9085 165.574 81.8596V89.0029C165.574 92.954 168.766 96.1461 172.717 96.1461H201.29C205.241 96.1461 208.433 92.954 208.433 89.0029V81.8596C208.433 77.9085 205.241 74.7163 201.29 74.7163H172.717ZM179.86 117.576C179.86 113.625 176.668 110.433 172.717 110.433C168.766 110.433 165.574 113.625 165.574 117.576C165.574 121.527 168.766 124.719 172.717 124.719C176.668 124.719 179.86 121.527 179.86 117.576ZM201.29 124.719C205.241 124.719 208.433 121.527 208.433 117.576C208.433 113.625 205.241 110.433 201.29 110.433C197.339 110.433 194.147 113.625 194.147 117.576C194.147 121.527 197.339 124.719 201.29 124.719Z" fill="white"/>
</svg>
