<svg width="100" height="100" viewBox="0 0 100 100" fill="none" xmlns="http://www.w3.org/2000/svg">
<path d="M64.5833 23.6667C69.1667 23.6667 72.9167 19.9167 72.9167 15.3333C72.9167 10.75 69.1667 7 64.5833 7C60 7 56.25 10.75 56.25 15.3333C56.25 19.9167 60 23.6667 64.5833 23.6667ZM20.8333 50.75C9.16667 50.75 0 59.9167 0 71.5833C0 83.25 9.16667 92.4167 20.8333 92.4167C32.5 92.4167 41.6667 83.25 41.6667 71.5833C41.6667 59.9167 32.5 50.75 20.8333 50.75ZM20.8333 86.1667C12.9167 86.1667 6.25 79.5 6.25 71.5833C6.25 63.6667 12.9167 57 20.8333 57C28.75 57 35.4167 63.6667 35.4167 71.5833C35.4167 79.5 28.75 86.1667 20.8333 86.1667ZM45 44.5L55 34.5L58.3333 37.8333C62.75 42.25 68.25 45.25 74.8333 46.25C77.3333 46.625 79.5833 44.625 79.5833 42.0833C79.5833 40.0417 78.0417 38.2917 76.0417 37.9583C71.4167 37.2083 67.625 35 64.5833 32L56.6667 24.0833C54.5833 22.4167 52.5 21.5833 50 21.5833C47.5 21.5833 45.4167 22.4167 44.1667 24.0833L32.5 35.75C30.8333 37.4167 30 39.5 30 41.5833C30 44.0833 30.8333 46.1667 32.5 47.4167L45.8333 59.0833V75.75C45.8333 78.0417 47.7083 79.9167 50 79.9167C52.2917 79.9167 54.1667 78.0417 54.1667 75.75V57.4167C54.1667 55.25 53.3333 53.2083 51.875 51.6667L45 44.5ZM79.1667 50.75C67.5 50.75 58.3333 59.9167 58.3333 71.5833C58.3333 83.25 67.5 92.4167 79.1667 92.4167C90.8333 92.4167 100 83.25 100 71.5833C100 59.9167 90.8333 50.75 79.1667 50.75ZM79.1667 86.1667C71.25 86.1667 64.5833 79.5 64.5833 71.5833C64.5833 63.6667 71.25 57 79.1667 57C87.0833 57 93.75 63.6667 93.75 71.5833C93.75 79.5 87.0833 86.1667 79.1667 86.1667Z" fill="white"/>
</svg>
