<svg width="100" height="100" viewBox="0 0 100 100" fill="none" xmlns="http://www.w3.org/2000/svg">
<path d="M8 73.6842C8 78.3158 10.0526 82.4737 13.2632 85.3684V94.7368C13.2632 97.6316 15.6316 100 18.5263 100H23.7895C26.6842 100 29.0526 97.6316 29.0526 94.7368V89.4737H71.1579V94.7368C71.1579 97.6316 73.5263 100 76.4211 100H81.6842C84.5789 100 86.9474 97.6316 86.9474 94.7368V85.3684C90.1579 82.4737 92.2105 78.3158 92.2105 73.6842V21.0526C92.2105 2.63158 73.3684 0 50.1053 0C26.8421 0 8 2.63158 8 21.0526V73.6842ZM26.4211 78.9474C22.0526 78.9474 18.5263 75.4211 18.5263 71.0526C18.5263 66.6842 22.0526 63.1579 26.4211 63.1579C30.7895 63.1579 34.3158 66.6842 34.3158 71.0526C34.3158 75.4211 30.7895 78.9474 26.4211 78.9474ZM73.7895 78.9474C69.4211 78.9474 65.8947 75.4211 65.8947 71.0526C65.8947 66.6842 69.4211 63.1579 73.7895 63.1579C78.1579 63.1579 81.6842 66.6842 81.6842 71.0526C81.6842 75.4211 78.1579 78.9474 73.7895 78.9474ZM81.6842 47.3684H18.5263V21.0526H81.6842V47.3684Z" fill="white"/>
</svg>
