<svg width="100" height="100" viewBox="0 0 100 100" fill="none" xmlns="http://www.w3.org/2000/svg">
<path d="M54.7544 18.6047C59.8517 18.6047 64.0222 14.4186 64.0222 9.30233C64.0222 4.18605 59.8517 0 54.7544 0C49.6571 0 45.4866 4.18605 45.4866 9.30233C45.4866 14.4186 49.6571 18.6047 54.7544 18.6047ZM37.6089 34.4186L25.7461 94.4651C25.1437 97.3023 27.3679 100 30.2873 100H30.658C32.836 100 34.6895 98.5116 35.1993 96.3721L42.7062 62.7907L52.4374 72.093V95.3488C52.4374 97.907 54.5227 100 57.0714 100C59.62 100 61.7053 97.907 61.7053 95.3488V69.1163C61.7053 66.5581 60.6858 64.1395 58.8323 62.3721L51.974 55.814L54.7544 41.8605C59.9765 47.8526 67.1252 51.8188 74.9583 53.0698C77.7386 53.4884 80.241 51.2558 80.241 48.4186C80.241 46.1395 78.5727 44.2326 76.3021 43.8605C69.2586 42.6977 63.4198 38.5116 60.3151 33.0233L55.6812 25.5814C54.4297 23.5728 52.507 22.0768 50.2572 21.361C48.0073 20.6451 45.577 20.7563 43.4013 21.6744L25.6534 29.2093C23.9746 29.9296 22.5437 31.1292 21.5385 32.659C20.5334 34.1888 19.9984 35.9814 20 37.814V48.8372C20 51.3953 22.0853 53.4884 24.6339 53.4884C27.1826 53.4884 29.2678 51.3953 29.2678 48.8372V37.6744L37.6089 34.4186Z" fill="white"/>
</svg>
